# xmcd
#
# Track frame offsets: 
#        182
#        19605
#        44767
#
# Disc length: 845 seconds
#
# Revision: 0
# Processed by: cddbd v1.5.1PL2 Copyright (c) Steve Scherf et al.
# Submitted via: ExactAudioCopy v0.95b4
#
DISCID=1f034b03
DTITLE=Kelly Price - Friend Of Mine
DYEAR=1998
DGENRE=R&B
TTITLE0=Friend of Mine (radio)
TTITLE1=Friend of MIne (instrumental)
TTITLE2=Secret Love, You Complete Me ft. Daron Jones (snippets)
EXTD=
EXTT0=
EXTT1=
EXTT2=
PLAYORDER=
